<svg width="270" height="270" viewBox="0 0 270 270" fill="none" xmlns="http://www.w3.org/2000/svg">
<path d="M24 24.1042C24 24.0469 24.0469 24 24.1042 24H29.8958C29.9531 24 30 24.0469 30 24.1042V24.506C30 24.5488 29.9828 24.5894 29.9521 24.6186L25.7021 29.9218C25.6625 29.9713 25.6025 30 25.5395 30H24.1042C24.0469 30 24 29.9531 24 29.8958V24.1042Z" fill="#DBDBDB"/>
<path d="M78 24.1042C78 24.0469 78.0469 24 78.1042 24H83.8958C83.9531 24 84 24.0469 84 24.1042V24.506C84 24.5488 83.9828 24.5894 83.9521 24.6186L79.7021 29.9218C79.6625 29.9713 79.6025 30 79.5395 30H78.1042C78.0469 30 78 29.9531 78 29.8958V24.1042Z" fill="#DBDBDB"/>
<path d="M132 24.1042C132 24.0469 132.047 24 132.104 24H137.896C137.953 24 138 24.0469 138 24.1042V24.506C138 24.5488 137.983 24.5894 137.952 24.6186L133.702 29.9218C133.662 29.9713 133.603 30 133.539 30H132.104C132.047 30 132 29.9531 132 29.8958V24.1042Z" fill="#DBDBDB"/>
<path d="M186 24.1042C186 24.0469 186.047 24 186.104 24H191.896C191.953 24 192 24.0469 192 24.1042V24.506C192 24.5488 191.983 24.5894 191.952 24.6186L187.702 29.9218C187.662 29.9713 187.603 30 187.539 30H186.104C186.047 30 186 29.9531 186 29.8958V24.1042Z" fill="#DBDBDB"/>
<path d="M240 24.1042C240 24.0469 240.047 24 240.104 24H245.896C245.953 24 246 24.0469 246 24.1042V24.506C246 24.5488 245.983 24.5894 245.952 24.6186L241.702 29.9218C241.662 29.9713 241.603 30 241.539 30H240.104C240.047 30 240 29.9531 240 29.8958V24.1042Z" fill="#DBDBDB"/>
<path d="M24 78.1042C24 78.0469 24.0469 78 24.1042 78H29.8958C29.9531 78 30 78.0469 30 78.1042V78.506C30 78.5488 29.9828 78.5894 29.9521 78.6186L25.7021 83.9218C25.6625 83.9713 25.6025 84 25.5395 84H24.1042C24.0469 84 24 83.9531 24 83.8958V78.1042Z" fill="#DBDBDB"/>
<path d="M78 78.1042C78 78.0469 78.0469 78 78.1042 78H83.8958C83.9531 78 84 78.0469 84 78.1042V78.506C84 78.5488 83.9828 78.5894 83.9521 78.6186L79.7021 83.9218C79.6625 83.9713 79.6025 84 79.5395 84H78.1042C78.0469 84 78 83.9531 78 83.8958V78.1042Z" fill="#DBDBDB"/>
<path d="M132 78.1042C132 78.0469 132.047 78 132.104 78H137.896C137.953 78 138 78.0469 138 78.1042V78.506C138 78.5488 137.983 78.5894 137.952 78.6186L133.702 83.9218C133.662 83.9713 133.603 84 133.539 84H132.104C132.047 84 132 83.9531 132 83.8958V78.1042Z" fill="#DBDBDB"/>
<path d="M186 78.1042C186 78.0469 186.047 78 186.104 78H191.896C191.953 78 192 78.0469 192 78.1042V78.506C192 78.5488 191.983 78.5894 191.952 78.6186L187.702 83.9218C187.662 83.9713 187.603 84 187.539 84H186.104C186.047 84 186 83.9531 186 83.8958V78.1042Z" fill="#DBDBDB"/>
<path d="M240 78.1042C240 78.0469 240.047 78 240.104 78H245.896C245.953 78 246 78.0469 246 78.1042V78.506C246 78.5488 245.983 78.5894 245.952 78.6186L241.702 83.9218C241.662 83.9713 241.603 84 241.539 84H240.104C240.047 84 240 83.9531 240 83.8958V78.1042Z" fill="#DBDBDB"/>
<path d="M24 132.104C24 132.047 24.0469 132 24.1042 132H29.8958C29.9531 132 30 132.047 30 132.104V132.506C30 132.549 29.9828 132.589 29.9521 132.619L25.7021 137.922C25.6625 137.971 25.6025 138 25.5395 138H24.1042C24.0469 138 24 137.953 24 137.896V132.104Z" fill="#DBDBDB"/>
<path d="M78 132.104C78 132.047 78.0469 132 78.1042 132H83.8958C83.9531 132 84 132.047 84 132.104V132.506C84 132.549 83.9828 132.589 83.9521 132.619L79.7021 137.922C79.6625 137.971 79.6025 138 79.5395 138H78.1042C78.0469 138 78 137.953 78 137.896V132.104Z" fill="#DBDBDB"/>
<path d="M132 132.104C132 132.047 132.047 132 132.104 132H137.896C137.953 132 138 132.047 138 132.104V132.506C138 132.549 137.983 132.589 137.952 132.619L133.702 137.922C133.662 137.971 133.603 138 133.539 138H132.104C132.047 138 132 137.953 132 137.896V132.104Z" fill="#DBDBDB"/>
<path d="M186 132.104C186 132.047 186.047 132 186.104 132H191.896C191.953 132 192 132.047 192 132.104V132.506C192 132.549 191.983 132.589 191.952 132.619L187.702 137.922C187.662 137.971 187.603 138 187.539 138H186.104C186.047 138 186 137.953 186 137.896V132.104Z" fill="#DBDBDB"/>
<path d="M240 132.104C240 132.047 240.047 132 240.104 132H245.896C245.953 132 246 132.047 246 132.104V132.506C246 132.549 245.983 132.589 245.952 132.619L241.702 137.922C241.662 137.971 241.603 138 241.539 138H240.104C240.047 138 240 137.953 240 137.896V132.104Z" fill="#DBDBDB"/>
<path d="M24 186.104C24 186.047 24.0469 186 24.1042 186H29.8958C29.9531 186 30 186.047 30 186.104V186.506C30 186.549 29.9828 186.589 29.9521 186.619L25.7021 191.922C25.6625 191.971 25.6025 192 25.5395 192H24.1042C24.0469 192 24 191.953 24 191.896V186.104Z" fill="#DBDBDB"/>
<path d="M78 186.104C78 186.047 78.0469 186 78.1042 186H83.8958C83.9531 186 84 186.047 84 186.104V186.506C84 186.549 83.9828 186.589 83.9521 186.619L79.7021 191.922C79.6625 191.971 79.6025 192 79.5395 192H78.1042C78.0469 192 78 191.953 78 191.896V186.104Z" fill="#DBDBDB"/>
<path d="M132 186.104C132 186.047 132.047 186 132.104 186H137.896C137.953 186 138 186.047 138 186.104V186.506C138 186.549 137.983 186.589 137.952 186.619L133.702 191.922C133.662 191.971 133.603 192 133.539 192H132.104C132.047 192 132 191.953 132 191.896V186.104Z" fill="#DBDBDB"/>
<path d="M186 186.104C186 186.047 186.047 186 186.104 186H191.896C191.953 186 192 186.047 192 186.104V186.506C192 186.549 191.983 186.589 191.952 186.619L187.702 191.922C187.662 191.971 187.603 192 187.539 192H186.104C186.047 192 186 191.953 186 191.896V186.104Z" fill="#DBDBDB"/>
<path d="M240 186.104C240 186.047 240.047 186 240.104 186H245.896C245.953 186 246 186.047 246 186.104V186.506C246 186.549 245.983 186.589 245.952 186.619L241.702 191.922C241.662 191.971 241.603 192 241.539 192H240.104C240.047 192 240 191.953 240 191.896V186.104Z" fill="#DBDBDB"/>
<path d="M24 240.104C24 240.047 24.0469 240 24.1042 240H29.8958C29.9531 240 30 240.047 30 240.104V240.506C30 240.549 29.9828 240.589 29.9521 240.619L25.7021 245.922C25.6625 245.971 25.6025 246 25.5395 246H24.1042C24.0469 246 24 245.953 24 245.896V240.104Z" fill="#DBDBDB"/>
<path d="M78 240.104C78 240.047 78.0469 240 78.1042 240H83.8958C83.9531 240 84 240.047 84 240.104V240.506C84 240.549 83.9828 240.589 83.9521 240.619L79.7021 245.922C79.6625 245.971 79.6025 246 79.5395 246H78.1042C78.0469 246 78 245.953 78 245.896V240.104Z" fill="#DBDBDB"/>
<path d="M132 240.104C132 240.047 132.047 240 132.104 240H137.896C137.953 240 138 240.047 138 240.104V240.506C138 240.549 137.983 240.589 137.952 240.619L133.702 245.922C133.662 245.971 133.603 246 133.539 246H132.104C132.047 246 132 245.953 132 245.896V240.104Z" fill="#DBDBDB"/>
<path d="M186 240.104C186 240.047 186.047 240 186.104 240H191.896C191.953 240 192 240.047 192 240.104V240.506C192 240.549 191.983 240.589 191.952 240.619L187.702 245.922C187.662 245.971 187.603 246 187.539 246H186.104C186.047 246 186 245.953 186 245.896V240.104Z" fill="#DBDBDB"/>
<path d="M240 240.104C240 240.047 240.047 240 240.104 240H245.896C245.953 240 246 240.047 246 240.104V240.506C246 240.549 245.983 240.589 245.952 240.619L241.702 245.922C241.662 245.971 241.603 246 241.539 246H240.104C240.047 246 240 245.953 240 245.896V240.104Z" fill="#DBDBDB"/>
</svg>
